<svg xmlns="http://www.w3.org/2000/svg" xmlns:xlink="http://www.w3.org/1999/xlink" width="500" zoomAndPan="magnify" viewBox="0 0 375 74.999997" height="100" preserveAspectRatio="xMidYMid meet" version="1.0"><defs><g/><clipPath id="ddf51a41f2"><path d="M 7.5 10.230469 L 61.617188 10.230469 L 61.617188 64.347656 L 7.5 64.347656 Z M 7.5 10.230469 " clip-rule="nonzero"/></clipPath><clipPath id="fdf24e5433"><path d="M 34.558594 10.230469 C 19.613281 10.230469 7.5 22.34375 7.5 37.289062 C 7.5 52.230469 19.613281 64.347656 34.558594 64.347656 C 49.5 64.347656 61.617188 52.230469 61.617188 37.289062 C 61.617188 22.34375 49.5 10.230469 34.558594 10.230469 Z M 34.558594 10.230469 " clip-rule="nonzero"/></clipPath><clipPath id="dae526313d"><path d="M 20 22.617188 L 49.113281 22.617188 L 49.113281 51.84375 L 20 51.84375 Z M 20 22.617188 " clip-rule="nonzero"/></clipPath><clipPath id="7a0e4d2e85"><path d="M 23.75 22.730469 L 45.363281 22.730469 C 46.359375 22.730469 47.3125 23.125 48.015625 23.828125 C 48.71875 24.535156 49.113281 25.488281 49.113281 26.480469 L 49.113281 48.09375 C 49.113281 49.089844 48.71875 50.042969 48.015625 50.746094 C 47.3125 51.449219 46.359375 51.84375 45.363281 51.84375 L 23.75 51.84375 C 22.757812 51.84375 21.804688 51.449219 21.101562 50.746094 C 20.394531 50.042969 20 49.089844 20 48.09375 L 20 26.480469 C 20 25.488281 20.394531 24.535156 21.101562 23.828125 C 21.804688 23.125 22.757812 22.730469 23.75 22.730469 Z M 23.75 22.730469 " clip-rule="nonzero"/></clipPath></defs><g clip-path="url(#ddf51a41f2)"><g clip-path="url(#fdf24e5433)"><path fill="#646096" d="M 7.5 10.230469 L 61.617188 10.230469 L 61.617188 64.347656 L 7.5 64.347656 Z M 7.5 10.230469 " fill-opacity="1" fill-rule="nonzero"/></g></g><g clip-path="url(#dae526313d)"><g clip-path="url(#7a0e4d2e85)"><path fill="#b5e1f5" d="M 20 22.730469 L 49.113281 22.730469 L 49.113281 51.84375 L 20 51.84375 Z M 20 22.730469 " fill-opacity="1" fill-rule="nonzero"/></g></g><g fill="#646096" fill-opacity="1"><g transform="translate(72.148832, 51.90726)"><g><path d="M 24 0 L 6.28125 0 C 5.539062 -0.0625 4.925781 -0.34375 4.4375 -0.84375 C 3.957031 -1.351562 3.71875 -1.976562 3.71875 -2.71875 L 3.71875 -29.421875 C 3.71875 -30.191406 3.972656 -30.835938 4.484375 -31.359375 C 5.003906 -31.878906 5.648438 -32.140625 6.421875 -32.140625 L 24 -32.140625 C 24.769531 -32.140625 25.414062 -31.878906 25.9375 -31.359375 C 26.457031 -30.835938 26.71875 -30.191406 26.71875 -29.421875 C 26.71875 -28.859375 26.457031 -28.332031 25.9375 -27.84375 C 25.414062 -27.363281 24.769531 -27.125 24 -27.125 L 9.1875 -27.125 L 9.1875 -18.734375 L 20.796875 -18.734375 C 21.566406 -18.734375 22.191406 -18.488281 22.671875 -18 C 23.160156 -17.519531 23.40625 -16.941406 23.40625 -16.265625 C 23.40625 -15.566406 23.160156 -14.957031 22.671875 -14.4375 C 22.191406 -13.914062 21.566406 -13.65625 20.796875 -13.65625 L 9.1875 -13.65625 L 9.1875 -5.015625 L 24 -5.015625 C 24.769531 -5.015625 25.414062 -4.765625 25.9375 -4.265625 C 26.457031 -3.765625 26.71875 -3.226562 26.71875 -2.65625 C 26.71875 -1.925781 26.457031 -1.300781 25.9375 -0.78125 C 25.414062 -0.257812 24.769531 0 24 0 Z M 24 0 "/></g></g></g><g fill="#646096" fill-opacity="1"><g transform="translate(111.114727, 51.90726)"><g><path d="M 18.234375 -16.171875 L 27.5625 -4.5625 C 28.132812 -3.925781 28.382812 -3.238281 28.3125 -2.5 C 28.25 -1.769531 27.96875 -1.171875 27.46875 -0.703125 C 26.9375 -0.171875 26.289062 0.0664062 25.53125 0.015625 C 24.78125 -0.0234375 24.15625 -0.332031 23.65625 -0.90625 L 14.765625 -12.046875 L 5.875 -0.953125 C 5.375 -0.347656 4.765625 -0.0234375 4.046875 0.015625 C 3.328125 0.0664062 2.679688 -0.171875 2.109375 -0.703125 C 1.503906 -1.273438 1.207031 -1.925781 1.21875 -2.65625 C 1.238281 -3.394531 1.484375 -4.03125 1.953125 -4.5625 L 11.40625 -16.265625 L 2.0625 -27.5625 C 1.5625 -28.132812 1.289062 -28.796875 1.25 -29.546875 C 1.21875 -30.304688 1.488281 -30.9375 2.0625 -31.4375 C 2.625 -31.9375 3.289062 -32.160156 4.0625 -32.109375 C 4.832031 -32.066406 5.488281 -31.757812 6.03125 -31.1875 L 14.859375 -20.4375 L 23.5 -31.1875 C 24 -31.757812 24.640625 -32.066406 25.421875 -32.109375 C 26.210938 -32.160156 26.878906 -31.9375 27.421875 -31.4375 C 27.953125 -30.9375 28.191406 -30.304688 28.140625 -29.546875 C 28.097656 -28.796875 27.84375 -28.132812 27.375 -27.5625 Z M 18.234375 -16.171875 "/></g></g></g><g fill="#646096" fill-opacity="1"><g transform="translate(151.486539, 51.90726)"><g><path d="M 18.375 -29.625 L 29.28125 -3.859375 C 29.539062 -3.328125 29.613281 -2.757812 29.5 -2.15625 C 29.382812 -1.550781 29.109375 -1.039062 28.671875 -0.625 C 28.234375 -0.207031 27.648438 0 26.921875 0 C 26.378906 0.03125 25.863281 -0.101562 25.375 -0.40625 C 24.894531 -0.707031 24.570312 -1.125 24.40625 -1.65625 L 22.59375 -6.28125 L 8.03125 -6.28125 L 6.234375 -1.65625 C 5.992188 -1.125 5.65625 -0.710938 5.21875 -0.421875 C 4.78125 -0.140625 4.28125 0 3.71875 0 C 2.644531 0 1.878906 -0.398438 1.421875 -1.203125 C 0.972656 -2.003906 0.9375 -2.875 1.3125 -3.8125 L 12.109375 -29.578125 C 12.367188 -30.316406 12.757812 -30.925781 13.28125 -31.40625 C 13.800781 -31.894531 14.460938 -32.140625 15.265625 -32.140625 C 16.066406 -32.140625 16.691406 -31.953125 17.140625 -31.578125 C 17.597656 -31.210938 18.007812 -30.5625 18.375 -29.625 Z M 15.3125 -24.65625 L 10.046875 -11.296875 L 20.59375 -11.296875 Z M 15.3125 -24.65625 "/></g></g></g><g fill="#646096" fill-opacity="1"><g transform="translate(192.912791, 51.90726)"><g><path d="M 6.421875 0 C 5.691406 0 5.054688 -0.265625 4.515625 -0.796875 C 3.984375 -1.335938 3.71875 -1.976562 3.71875 -2.71875 L 3.71875 -29.484375 C 3.71875 -30.316406 3.984375 -30.972656 4.515625 -31.453125 C 5.054688 -31.941406 5.675781 -32.1875 6.375 -32.1875 C 6.75 -32.1875 7.109375 -32.117188 7.453125 -31.984375 C 7.804688 -31.847656 8.117188 -31.632812 8.390625 -31.34375 L 19.28125 -18.375 L 30.078125 -31.390625 C 30.410156 -31.648438 30.753906 -31.835938 31.109375 -31.953125 C 31.460938 -32.078125 31.773438 -32.140625 32.046875 -32.140625 C 32.804688 -32.140625 33.445312 -31.890625 33.96875 -31.390625 C 34.488281 -30.890625 34.75 -30.253906 34.75 -29.484375 L 34.75 -2.71875 C 34.75 -1.976562 34.488281 -1.335938 33.96875 -0.796875 C 33.445312 -0.265625 32.804688 0 32.046875 0 C 31.304688 0 30.664062 -0.265625 30.125 -0.796875 C 29.59375 -1.335938 29.328125 -1.976562 29.328125 -2.71875 L 29.328125 -22.546875 L 21.046875 -12.40625 C 20.503906 -11.863281 19.914062 -11.59375 19.28125 -11.59375 C 18.644531 -11.59375 18.039062 -11.863281 17.46875 -12.40625 L 9.1875 -22.546875 L 9.1875 -2.71875 C 9.1875 -1.976562 8.914062 -1.335938 8.375 -0.796875 C 7.84375 -0.265625 7.191406 0 6.421875 0 Z M 6.421875 0 "/></g></g></g><g fill="#646096" fill-opacity="1"><g transform="translate(242.222286, 51.90726)"><g><path d="M 6.421875 0 C 5.691406 0 5.054688 -0.265625 4.515625 -0.796875 C 3.984375 -1.335938 3.71875 -1.976562 3.71875 -2.71875 L 3.71875 -29.421875 C 3.71875 -30.191406 3.984375 -30.835938 4.515625 -31.359375 C 5.054688 -31.878906 5.691406 -32.140625 6.421875 -32.140625 L 15.3125 -32.140625 C 17.5625 -32.140625 19.597656 -31.59375 21.421875 -30.5 C 23.242188 -29.414062 24.691406 -27.96875 25.765625 -26.15625 C 26.835938 -24.351562 27.375 -22.347656 27.375 -20.140625 C 27.375 -17.960938 26.828125 -15.992188 25.734375 -14.234375 C 24.648438 -12.472656 23.203125 -11.082031 21.390625 -10.0625 C 19.585938 -9.039062 17.5625 -8.53125 15.3125 -8.53125 L 9.1875 -8.53125 L 9.1875 -2.71875 C 9.1875 -1.976562 8.914062 -1.335938 8.375 -0.796875 C 7.84375 -0.265625 7.191406 0 6.421875 0 Z M 9.1875 -27.125 L 9.1875 -13.609375 L 15.421875 -13.609375 C 17.390625 -13.609375 18.957031 -14.257812 20.125 -15.5625 C 21.300781 -16.875 21.890625 -18.445312 21.890625 -20.28125 C 21.890625 -21.519531 21.617188 -22.660156 21.078125 -23.703125 C 20.546875 -24.742188 19.796875 -25.570312 18.828125 -26.1875 C 17.859375 -26.8125 16.722656 -27.125 15.421875 -27.125 Z M 9.1875 -27.125 "/></g></g></g><g fill="#646096" fill-opacity="1"><g transform="translate(281.690304, 51.90726)"><g><path d="M 9.1875 -5.015625 L 23.09375 -5.015625 C 23.863281 -5.015625 24.507812 -4.765625 25.03125 -4.265625 C 25.550781 -3.765625 25.8125 -3.25 25.8125 -2.71875 C 25.8125 -1.976562 25.550781 -1.335938 25.03125 -0.796875 C 24.507812 -0.265625 23.863281 0 23.09375 0 L 6.421875 0 C 4.617188 0 3.71875 -0.90625 3.71875 -2.71875 L 3.71875 -29.421875 C 3.71875 -30.191406 3.984375 -30.835938 4.515625 -31.359375 C 5.054688 -31.878906 5.691406 -32.140625 6.421875 -32.140625 C 7.191406 -32.140625 7.84375 -31.878906 8.375 -31.359375 C 8.914062 -30.835938 9.1875 -30.191406 9.1875 -29.421875 Z M 9.1875 -5.015625 "/></g></g></g><g fill="#646096" fill-opacity="1"><g transform="translate(318.597522, 51.90726)"><g><path d="M 24 0 L 6.28125 0 C 5.539062 -0.0625 4.925781 -0.34375 4.4375 -0.84375 C 3.957031 -1.351562 3.71875 -1.976562 3.71875 -2.71875 L 3.71875 -29.421875 C 3.71875 -30.191406 3.972656 -30.835938 4.484375 -31.359375 C 5.003906 -31.878906 5.648438 -32.140625 6.421875 -32.140625 L 24 -32.140625 C 24.769531 -32.140625 25.414062 -31.878906 25.9375 -31.359375 C 26.457031 -30.835938 26.71875 -30.191406 26.71875 -29.421875 C 26.71875 -28.859375 26.457031 -28.332031 25.9375 -27.84375 C 25.414062 -27.363281 24.769531 -27.125 24 -27.125 L 9.1875 -27.125 L 9.1875 -18.734375 L 20.796875 -18.734375 C 21.566406 -18.734375 22.191406 -18.488281 22.671875 -18 C 23.160156 -17.519531 23.40625 -16.941406 23.40625 -16.265625 C 23.40625 -15.566406 23.160156 -14.957031 22.671875 -14.4375 C 22.191406 -13.914062 21.566406 -13.65625 20.796875 -13.65625 L 9.1875 -13.65625 L 9.1875 -5.015625 L 24 -5.015625 C 24.769531 -5.015625 25.414062 -4.765625 25.9375 -4.265625 C 26.457031 -3.765625 26.71875 -3.226562 26.71875 -2.65625 C 26.71875 -1.925781 26.457031 -1.300781 25.9375 -0.78125 C 25.414062 -0.257812 24.769531 0 24 0 Z M 24 0 "/></g></g></g></svg>